<mxfile host="app.diagrams.net" modified="2021-02-25T08:16:41.010Z" agent="5.0 (Windows NT 10.0; WOW64) AppleWebKit/537.36 (KHTML, like Gecko) Chrome/88.0.4324.182 Safari/537.36" etag="cdHqItGpHPF94qZjcK1-" version="14.4.2" type="github">
  <diagram id="A34s0fUclIZdKXrOmpxW" name="Page-1">
    <mxGraphModel dx="868" dy="450" grid="1" gridSize="10" guides="1" tooltips="1" connect="1" arrows="1" fold="1" page="1" pageScale="1" pageWidth="827" pageHeight="1169" math="0" shadow="0">
      <root>
        <mxCell id="0" />
        <mxCell id="1" parent="0" />
        <mxCell id="-QPJWew0ZwoNzmnObNjs-1" value="Java间内存交互" style="rounded=0;whiteSpace=wrap;html=1;shadow=0;sketch=1;strokeColor=#6c8ebf;fillColor=#dae8fc;fontSize=14;fontStyle=1" vertex="1" parent="1">
          <mxGeometry x="30" y="10" width="120" height="60" as="geometry" />
        </mxCell>
        <mxCell id="-QPJWew0ZwoNzmnObNjs-4" value="Java 线程" style="rounded=1;whiteSpace=wrap;html=1;fillColor=#ffe6cc;strokeColor=#d79b00;sketch=1;" vertex="1" parent="1">
          <mxGeometry x="70" y="192" width="120" height="118" as="geometry" />
        </mxCell>
        <mxCell id="-QPJWew0ZwoNzmnObNjs-5" value="工作内存" style="rounded=1;whiteSpace=wrap;html=1;shadow=0;sketch=1;fillColor=#fff2cc;strokeColor=#d6b656;" vertex="1" parent="1">
          <mxGeometry x="280" y="192" width="120" height="118" as="geometry" />
        </mxCell>
        <mxCell id="-QPJWew0ZwoNzmnObNjs-6" value="主内存&lt;br&gt;(实质是虚拟机内存的一部分)" style="ellipse;whiteSpace=wrap;html=1;rounded=1;sketch=1;strokeColor=#9673a6;fillColor=#e1d5e7;shadow=0;spacingLeft=0;spacingRight=0;spacingTop=0;spacing=2;verticalAlign=middle;horizontal=1;labelBorderColor=none;treeFolding=0;treeMoving=0;dropTarget=0;autosize=0;noLabel=0;portConstraintRotation=0;snapToPoint=0;fixDash=0;" vertex="1" parent="1">
          <mxGeometry x="590" y="140" width="140" height="200" as="geometry" />
        </mxCell>
        <mxCell id="-QPJWew0ZwoNzmnObNjs-10" value="&lt;span&gt;对象 a&lt;/span&gt;" style="rounded=0;whiteSpace=wrap;html=1;shadow=0;sketch=1;strokeColor=#b85450;fillColor=#f8cecc;fontSize=14;" vertex="1" parent="1">
          <mxGeometry x="625" y="165" width="70" height="30" as="geometry" />
        </mxCell>
        <mxCell id="-QPJWew0ZwoNzmnObNjs-11" value="对象 a 的 copy" style="rounded=0;whiteSpace=wrap;html=1;shadow=0;sketch=1;strokeColor=#b85450;fillColor=#f8cecc;fontSize=14;" vertex="1" parent="1">
          <mxGeometry x="295" y="200" width="95" height="30" as="geometry" />
        </mxCell>
        <mxCell id="-QPJWew0ZwoNzmnObNjs-12" value="Save和Load&lt;br&gt;操作" style="rounded=0;verticalAlign=middle;horizontal=1;sketch=1;html=1;whiteSpace=wrap;spacingLeft=10;spacingRight=10;fillColor=#f8cecc;strokeColor=#b85450;" vertex="1" parent="1">
          <mxGeometry x="470" y="146" width="40" height="210" as="geometry" />
        </mxCell>
        <mxCell id="-QPJWew0ZwoNzmnObNjs-13" value="" style="shape=flexArrow;endArrow=classic;html=1;fontSize=14;width=24;endSize=8.67;sketch=1;" edge="1" parent="1">
          <mxGeometry width="50" height="50" relative="1" as="geometry">
            <mxPoint x="620" y="182" as="sourcePoint" />
            <mxPoint x="520" y="182" as="targetPoint" />
          </mxGeometry>
        </mxCell>
        <mxCell id="-QPJWew0ZwoNzmnObNjs-14" value="read" style="edgeLabel;html=1;align=left;verticalAlign=middle;resizable=0;points=[];fontSize=14;" vertex="1" connectable="0" parent="-QPJWew0ZwoNzmnObNjs-13">
          <mxGeometry x="0.3556" y="-1" relative="1" as="geometry">
            <mxPoint as="offset" />
          </mxGeometry>
        </mxCell>
        <mxCell id="-QPJWew0ZwoNzmnObNjs-15" value="" style="shape=flexArrow;endArrow=classic;html=1;fontSize=14;width=24;endSize=8.67;sketch=1;" edge="1" parent="1">
          <mxGeometry width="50" height="50" relative="1" as="geometry">
            <mxPoint x="470" y="215" as="sourcePoint" />
            <mxPoint x="400" y="215" as="targetPoint" />
          </mxGeometry>
        </mxCell>
        <mxCell id="-QPJWew0ZwoNzmnObNjs-16" value="load" style="edgeLabel;html=1;align=left;verticalAlign=middle;resizable=0;points=[];fontSize=14;" vertex="1" connectable="0" parent="-QPJWew0ZwoNzmnObNjs-15">
          <mxGeometry x="0.3556" y="-1" relative="1" as="geometry">
            <mxPoint x="-4" as="offset" />
          </mxGeometry>
        </mxCell>
        <mxCell id="-QPJWew0ZwoNzmnObNjs-17" value="" style="shape=flexArrow;endArrow=classic;html=1;fontSize=14;width=24;endSize=8.67;sketch=1;entryX=1;entryY=0.191;entryDx=0;entryDy=0;entryPerimeter=0;" edge="1" parent="1" target="-QPJWew0ZwoNzmnObNjs-4">
          <mxGeometry width="50" height="50" relative="1" as="geometry">
            <mxPoint x="280" y="215" as="sourcePoint" />
            <mxPoint x="210" y="214.5" as="targetPoint" />
          </mxGeometry>
        </mxCell>
        <mxCell id="-QPJWew0ZwoNzmnObNjs-18" value="use" style="edgeLabel;html=1;align=left;verticalAlign=middle;resizable=0;points=[];fontSize=14;" vertex="1" connectable="0" parent="-QPJWew0ZwoNzmnObNjs-17">
          <mxGeometry x="0.3556" y="-1" relative="1" as="geometry">
            <mxPoint x="-10" as="offset" />
          </mxGeometry>
        </mxCell>
        <mxCell id="-QPJWew0ZwoNzmnObNjs-24" value="" style="shape=flexArrow;endArrow=classic;html=1;fontSize=14;width=24;endSize=8.67;sketch=1;exitX=1;exitY=0.75;exitDx=0;exitDy=0;" edge="1" parent="1" target="-QPJWew0ZwoNzmnObNjs-5">
          <mxGeometry width="50" height="50" relative="1" as="geometry">
            <mxPoint x="193" y="259.56" as="sourcePoint" />
            <mxPoint x="280" y="250.002" as="targetPoint" />
          </mxGeometry>
        </mxCell>
        <mxCell id="-QPJWew0ZwoNzmnObNjs-25" value="assign" style="edgeLabel;html=1;align=center;verticalAlign=middle;resizable=0;points=[];fontSize=14;" vertex="1" connectable="0" parent="-QPJWew0ZwoNzmnObNjs-24">
          <mxGeometry x="0.3556" y="-1" relative="1" as="geometry">
            <mxPoint x="-10" as="offset" />
          </mxGeometry>
        </mxCell>
        <mxCell id="-QPJWew0ZwoNzmnObNjs-26" value="" style="shape=flexArrow;endArrow=classic;html=1;fontSize=14;width=24;endSize=8.67;sketch=1;entryX=0;entryY=0.571;entryDx=0;entryDy=0;entryPerimeter=0;" edge="1" parent="1" target="-QPJWew0ZwoNzmnObNjs-12">
          <mxGeometry width="50" height="50" relative="1" as="geometry">
            <mxPoint x="400" y="260.5" as="sourcePoint" />
            <mxPoint x="320" y="260" as="targetPoint" />
          </mxGeometry>
        </mxCell>
        <mxCell id="-QPJWew0ZwoNzmnObNjs-27" value="store" style="edgeLabel;html=1;align=right;verticalAlign=middle;resizable=0;points=[];fontSize=14;" vertex="1" connectable="0" parent="-QPJWew0ZwoNzmnObNjs-26">
          <mxGeometry x="0.3556" y="-1" relative="1" as="geometry">
            <mxPoint x="-4" as="offset" />
          </mxGeometry>
        </mxCell>
        <mxCell id="-QPJWew0ZwoNzmnObNjs-29" value="" style="shape=flexArrow;endArrow=classic;html=1;fontSize=14;width=24;endSize=8.67;sketch=1;exitX=0.975;exitY=0.795;exitDx=0;exitDy=0;exitPerimeter=0;" edge="1" parent="1" source="-QPJWew0ZwoNzmnObNjs-12" target="-QPJWew0ZwoNzmnObNjs-6">
          <mxGeometry width="50" height="50" relative="1" as="geometry">
            <mxPoint x="510" y="290" as="sourcePoint" />
            <mxPoint x="606.06" y="321" as="targetPoint" />
            <Array as="points">
              <mxPoint x="540" y="300" />
            </Array>
          </mxGeometry>
        </mxCell>
        <mxCell id="-QPJWew0ZwoNzmnObNjs-30" value="write" style="edgeLabel;html=1;align=right;verticalAlign=middle;resizable=0;points=[];fontSize=14;" vertex="1" connectable="0" parent="-QPJWew0ZwoNzmnObNjs-29">
          <mxGeometry x="0.3556" y="-1" relative="1" as="geometry">
            <mxPoint as="offset" />
          </mxGeometry>
        </mxCell>
        <mxCell id="-QPJWew0ZwoNzmnObNjs-31" value="" style="shape=flexArrow;endArrow=classic;html=1;fontSize=14;width=24;endSize=8.67;sketch=1;" edge="1" parent="1">
          <mxGeometry width="50" height="50" relative="1" as="geometry">
            <mxPoint x="660" y="60" as="sourcePoint" />
            <mxPoint x="660" y="130" as="targetPoint" />
          </mxGeometry>
        </mxCell>
        <mxCell id="-QPJWew0ZwoNzmnObNjs-32" value="lock" style="edgeLabel;html=1;align=left;verticalAlign=middle;resizable=0;points=[];fontSize=14;horizontal=0;labelPosition=right;verticalLabelPosition=middle;" vertex="1" connectable="0" parent="-QPJWew0ZwoNzmnObNjs-31">
          <mxGeometry x="0.3556" y="-1" relative="1" as="geometry">
            <mxPoint as="offset" />
          </mxGeometry>
        </mxCell>
        <mxCell id="-QPJWew0ZwoNzmnObNjs-33" value="" style="shape=flexArrow;endArrow=classic;html=1;fontSize=14;width=24;endSize=8.67;sketch=1;" edge="1" parent="1">
          <mxGeometry width="50" height="50" relative="1" as="geometry">
            <mxPoint x="670" y="350" as="sourcePoint" />
            <mxPoint x="670" y="420" as="targetPoint" />
          </mxGeometry>
        </mxCell>
        <mxCell id="-QPJWew0ZwoNzmnObNjs-34" value="unlock" style="edgeLabel;html=1;align=left;verticalAlign=middle;resizable=0;points=[];fontSize=14;horizontal=0;labelPosition=right;verticalLabelPosition=middle;" vertex="1" connectable="0" parent="-QPJWew0ZwoNzmnObNjs-33">
          <mxGeometry x="0.3556" y="-1" relative="1" as="geometry">
            <mxPoint as="offset" />
          </mxGeometry>
        </mxCell>
      </root>
    </mxGraphModel>
  </diagram>
</mxfile>
